<?xml version="1.0" standalone="no"?>
<!DOCTYPE svg PUBLIC "-//W3C//DTD SVG 20010904//EN"
 "http://www.w3.org/TR/2001/REC-SVG-20010904/DTD/svg10.dtd">
<svg version="1.0" xmlns="http://www.w3.org/2000/svg"
 width="300.000000pt" height="305.000000pt" viewBox="0 0 300.000000 305.000000"
 preserveAspectRatio="xMidYMid meet">
<metadata>
Created by potrace 1.10, written by Peter Selinger 2001-2011
</metadata>
<g transform="translate(0.000000,305.000000) scale(0.100000,-0.100000)"
fill="#000000" stroke="none">
<path d="M1294 2754 c-450 -75 -824 -401 -968 -841 -113 -346 -54 -762 151
-1061 180 -263 429 -433 753 -515 73 -18 112 -21 275 -21 172 1 199 3 286 26
123 33 236 79 324 130 554 325 768 998 503 1587 -76 170 -252 380 -408 487
-270 185 -603 261 -916 208z m71 -24 c-3 -5 -14 -10 -23 -9 -14 0 -13 2 3 9
27 11 27 11 20 0z m285 1 c24 -7 -209 -3 -240 3 -8 2 37 4 100 4 63 0 126 -3
140 -7z m105 -17 c22 -3 47 -11 55 -16 11 -7 8 -8 -10 -4 -14 3 -44 8 -68 12
-23 4 -45 11 -48 16 -4 6 1 8 12 5 11 -3 37 -9 59 -13z m-489 -3 c-3 -5 -23
-12 -43 -16 -21 -4 -83 -22 -137 -41 -104 -35 -120 -33 -26 3 72 29 163 56
203 62 5 0 6 -3 3 -8z m430 -26 c237 -42 447 -150 618 -319 230 -225 346 -504
346 -828 0 -370 -165 -703 -458 -923 -408 -307 -954 -316 -1372 -24 -95 66
-231 204 -293 297 -69 103 -134 246 -164 359 -34 131 -43 365 -19 495 91 483
463 856 942 942 107 19 292 19 400 1z m224 -27 c0 -5 -9 -4 -20 2 -11 6 -20
12 -20 14 0 2 9 2 20 -1 11 -3 20 -9 20 -15z m91 -29 c23 -11 38 -23 35 -26
-3 -3 -17 2 -30 11 -14 9 -32 16 -41 16 -8 0 -15 5 -15 10 0 14 5 13 51 -11z
m-1036 -18 c-3 -6 -11 -11 -17 -11 -6 0 -6 6 2 15 14 17 26 13 15 -4z m-55
-31 c-27 -21 -40 -25 -40 -11 0 5 12 14 28 19 39 15 40 14 12 -8z m1182 0 c12
-10 25 -17 30 -14 4 3 8 -2 8 -10 0 -12 -8 -10 -37 10 -47 31 -49 34 -34 34 6
0 21 -9 33 -20z m-1259 -47 c-44 -16 -225 -184 -282 -264 -19 -26 -31 -35 -31
-25 0 9 11 28 25 42 14 14 25 28 25 32 0 8 133 136 178 171 51 39 86 60 92 54
3 -3 0 -8 -7 -10z m1404 -48 c87 -67 223 -216 223 -244 0 -8 -14 5 -31 29 -44
60 -142 157 -221 219 -38 29 -68 55 -68 58 0 7 48 -24 97 -62z m-1738 -281
c-6 -8 -24 -38 -39 -66 -15 -29 -33 -54 -39 -56 -6 -2 2 19 19 48 16 28 30 55
30 60 0 6 4 10 9 10 5 0 13 10 17 23 4 13 9 17 12 9 2 -7 -2 -19 -9 -28z
m2037 -65 c16 -30 28 -56 29 -59 0 -3 9 -20 19 -38 9 -19 15 -36 12 -39 -3 -3
-20 24 -37 60 -17 37 -35 70 -40 73 -5 3 -7 10 -4 15 4 5 2 9 -2 9 -9 0 -43
52 -43 66 0 16 39 -36 66 -87z m-2127 -103 c-7 -14 -16 -26 -21 -26 -5 0 -1
14 7 31 20 37 31 33 14 -5z m-26 -58 c-6 -7 -13 -25 -17 -40 -3 -16 -11 -28
-17 -28 -8 0 -7 5 1 15 7 8 9 15 6 15 -4 0 1 13 10 30 10 16 20 27 22 25 3 -3
0 -10 -5 -17z m2249 -59 c26 -87 28 -100 19 -94 -5 2 -12 21 -15 40 -4 20 -16
56 -27 81 -12 28 -14 44 -7 42 6 -2 20 -33 30 -69z m-2287 -56 c-3 -10 -9 -30
-12 -46 -3 -15 -10 -30 -16 -34 -6 -4 -8 2 -3 18 3 13 9 36 12 52 4 15 11 27
16 27 6 0 7 -8 3 -17z m2322 -95 c-3 -7 -5 -2 -5 12 0 14 2 19 5 13 2 -7 2
-19 0 -25z m-2350 -20 c-3 -8 -6 -5 -6 6 -1 11 2 17 5 13 3 -3 4 -12 1 -19z
m2363 -27 c0 -16 3 -36 6 -45 3 -9 2 -16 -3 -16 -5 0 -10 16 -11 37 -2 20 -5
40 -8 45 -3 4 0 8 5 8 6 0 11 -13 11 -29z m-2382 -173 c-1 -91 -3 -115 -7 -78
-6 57 -3 210 5 210 2 0 3 -60 2 -132z m2393 26 c-2 -95 -11 -94 -11 1 0 43 3
75 6 72 4 -3 6 -36 5 -73z m-11 -201 c-9 -14 -10 -10 -6 22 3 22 7 54 8 70 1
17 3 6 5 -22 2 -29 -1 -61 -7 -70z m-2368 -3 c4 -45 -8 -55 -14 -12 -4 27 -1
52 7 52 1 0 5 -18 7 -40z m2368 -30 c0 -5 -5 -10 -11 -10 -5 0 -7 5 -4 10 3 6
8 10 11 10 2 0 4 -4 4 -10z m-2355 -52 c2 -13 10 -47 18 -75 9 -29 13 -53 8
-53 -8 0 -30 77 -36 130 -3 18 -2 30 2 27 3 -4 7 -17 8 -29z m2345 12 c0 -5
-5 -10 -11 -10 -5 0 -7 5 -4 10 3 6 8 10 11 10 2 0 4 -4 4 -10z m-16 -78 c-9
-29 -19 -52 -24 -52 -8 0 0 31 22 89 16 43 17 16 2 -37z m-55 -151 c-17 -39
-36 -71 -42 -71 -6 0 -6 4 0 13 5 6 18 32 27 57 35 88 38 95 43 84 2 -7 -10
-44 -28 -83z m-2217 15 c-7 -12 -20 21 -21 49 0 15 3 12 13 -10 7 -16 11 -34
8 -39z m46 -83 c17 -35 28 -63 24 -63 -9 0 -62 101 -62 119 0 20 3 15 38 -56z
m2106 -69 c-15 -27 -30 -51 -34 -54 -3 -3 -26 -32 -50 -65 -55 -76 -158 -178
-245 -244 -67 -50 -100 -66 -75 -36 7 9 15 13 17 11 3 -3 16 6 30 20 13 13 27
24 32 24 12 0 184 171 216 215 32 43 44 59 61 78 6 7 19 28 29 47 18 34 38 60
43 55 2 -1 -9 -25 -24 -51z m-2034 -55 c0 -4 6 -14 13 -21 6 -7 25 -31 42 -53
16 -22 57 -69 92 -104 35 -35 61 -67 58 -69 -3 -3 -35 26 -72 64 -79 81 -98
104 -126 153 -12 20 -27 42 -34 49 -7 7 -13 18 -13 24 0 6 9 1 20 -12 11 -13
20 -27 20 -31z m265 -283 c13 -14 26 -22 29 -19 3 4 6 1 6 -5 0 -18 -12 -14
-50 18 -19 16 -29 30 -21 30 7 0 24 -11 36 -24z m125 -86 c3 -3 42 -23 87 -45
45 -21 80 -41 78 -43 -7 -7 -215 98 -215 108 0 6 -5 9 -11 8 -6 -2 -14 3 -17
11 -3 10 8 6 34 -9 21 -13 41 -26 44 -30z m1220 0 c0 -5 -4 -10 -10 -10 -5 0
-10 5 -10 10 0 6 5 10 10 10 6 0 10 -4 10 -10z m-41 -24 c-11 -11 -109 -53
-109 -48 0 9 103 61 109 56 2 -2 2 -6 0 -8z m-119 -55 c0 -5 -11 -12 -24 -15
-13 -3 -32 -9 -43 -13 -10 -3 -15 -2 -10 3 7 7 46 24 75 33 1 1 2 -3 2 -8z
m-836 -19 c5 -8 31 -15 176 -48 l65 -14 -55 6 c-83 8 -96 11 -158 30 -64 19
-87 34 -55 34 12 0 24 -4 27 -8z m715 -26 c-2 -2 -17 -6 -34 -10 -22 -5 -26
-4 -15 4 14 9 59 15 49 6z m-95 -16 c-12 -12 -104 -30 -104 -21 0 4 24 12 53
18 28 5 54 11 57 11 2 1 0 -2 -6 -8z m-168 -27 c-7 -7 -197 -5 -205 3 -2 2 44
4 104 4 60 0 105 -3 101 -7z m47 0 c-7 -2 -19 -2 -25 0 -7 3 -2 5 12 5 14 0
19 -2 13 -5z"/>
<path d="M1335 2669 c-238 -34 -469 -152 -645 -329 -141 -142 -245 -322 -297
-517 -24 -89 -27 -115 -27 -283 0 -169 3 -193 27 -285 108 -400 419 -711 822
-821 92 -25 115 -28 285 -28 170 0 193 3 285 28 251 69 474 218 625 418 79
104 163 277 197 403 24 92 27 116 27 285 0 171 -2 193 -28 285 -91 331 -318
604 -620 746 -198 93 -437 129 -651 98z m154 -35 c-9 -11 -13 -37 -10 -81 2
-40 -2 -69 -9 -79 -19 -22 14 -54 55 -54 39 0 56 18 48 49 -5 20 -3 22 14 17
12 -4 25 -1 31 7 16 19 26 123 13 132 -22 13 -11 27 16 20 36 -9 38 -12 24
-29 -7 -8 -11 -23 -10 -33 4 -26 -11 -84 -29 -116 -15 -25 -15 -28 3 -47 20
-19 61 -31 120 -34 17 -1 51 -14 77 -29 34 -21 53 -26 74 -21 19 5 25 4 20 -5
-4 -6 -2 -11 3 -11 6 0 11 -6 11 -13 0 -15 51 -47 77 -47 10 0 28 -16 41 -36
31 -48 69 -45 94 8 10 20 35 51 57 69 33 26 39 35 30 50 -5 11 -6 19 -1 19 8
0 79 -72 102 -105 14 -19 14 -19 -6 -2 -26 22 -96 22 -130 1 -58 -39 -67 -119
-19 -176 75 -88 205 -38 205 79 l0 38 20 -25 c19 -24 50 -78 50 -88 0 -2 -7
-2 -15 2 -9 3 -25 -4 -36 -15 -24 -24 -79 -49 -107 -49 -50 0 -53 -71 -5 -93
21 -9 27 -9 31 1 2 6 8 12 13 12 5 0 2 -18 -7 -40 -14 -36 -15 -43 -1 -63 8
-13 12 -35 9 -56 -3 -22 0 -36 9 -42 9 -5 14 -27 14 -59 0 -32 5 -54 14 -59 9
-6 10 -11 2 -15 -6 -4 -11 -36 -11 -73 0 -73 16 -103 55 -103 30 0 53 26 37
42 -7 7 -12 20 -12 30 0 14 8 18 35 18 19 0 46 -5 60 -12 22 -10 27 -9 40 8
18 24 19 78 1 93 -10 8 -21 9 -41 1 -30 -11 -115 -3 -115 10 0 5 26 24 58 43
31 19 65 42 75 51 27 25 34 19 41 -36 32 -259 -20 -506 -150 -723 -24 -38 -52
-80 -63 -92 -12 -12 -21 -26 -21 -31 0 -21 -261 -252 -285 -252 -4 0 -33 -16
-66 -35 -32 -19 -59 -32 -59 -28 0 3 -6 1 -12 -5 -17 -13 -165 -59 -248 -77
-85 -19 -349 -14 -440 8 -63 14 -138 38 -190 60 -14 6 -27 11 -30 12 -6 1 -61
31 -102 55 -14 8 -44 25 -65 37 -55 31 -233 207 -286 283 -135 195 -193 383
-200 645 -2 60 16 211 25 221 3 2 8 -14 11 -37 14 -102 135 -142 199 -65 17
20 17 19 18 -58 l0 -78 -24 16 c-15 10 -27 12 -31 6 -11 -18 -26 -10 -37 20
-18 54 -67 65 -111 25 -23 -23 -27 -33 -27 -84 0 -69 15 -90 51 -70 15 7 46
10 89 6 41 -3 71 -2 78 5 7 7 12 -4 17 -34 17 -111 110 -348 136 -348 5 0 9
-6 9 -14 0 -7 36 -52 80 -99 211 -225 488 -317 790 -261 47 8 90 17 95 18 41
12 142 60 200 96 60 37 185 142 185 156 0 3 14 19 30 36 17 16 30 33 30 38 0
5 6 15 14 23 27 26 74 123 106 217 58 170 52 397 -15 561 -13 32 -21 60 -19
62 3 2 -2 10 -11 17 -8 7 -15 17 -15 22 0 15 -84 138 -117 173 -133 139 -278
223 -460 266 -183 44 -443 6 -598 -85 -68 -40 -160 -114 -216 -173 -49 -51
-119 -145 -119 -159 0 -5 -10 -20 -21 -34 -17 -21 -19 -22 -10 -3 14 29 14 66
-1 81 -9 9 -9 12 1 12 26 0 80 32 97 58 26 40 20 110 -13 144 -40 42 -84 53
-125 32 -52 -26 -77 -63 -78 -111 0 -35 6 -50 35 -82 22 -24 32 -42 25 -46 -6
-4 -9 -19 -8 -33 2 -22 -1 -26 -17 -24 -26 4 -85 34 -85 44 0 20 -32 5 -56
-27 -25 -33 -26 -36 -10 -54 9 -10 34 -21 55 -25 21 -3 55 -17 75 -31 44 -30
71 -26 80 12 4 14 9 23 11 21 5 -4 -33 -128 -40 -136 -2 -2 -13 13 -23 35 -36
67 -91 86 -154 51 -22 -13 -46 -34 -54 -48 -14 -24 -14 -23 -9 22 7 57 22 100
70 197 68 139 114 201 237 321 105 102 134 124 103 77 -14 -22 -14 -25 6 -43
27 -24 80 -100 74 -106 -3 -3 4 -13 14 -22 19 -17 21 -17 50 0 39 23 50 53 25
71 -17 13 -17 15 -2 46 28 55 27 63 -2 90 -32 31 -65 34 -98 11 -12 -8 -22
-12 -22 -7 0 10 77 58 110 68 22 7 23 6 12 -7 -10 -13 -10 -19 3 -32 23 -22
55 -97 55 -127 0 -15 7 -29 15 -33 20 -7 81 19 89 39 4 10 13 14 29 10 26 -7
81 30 71 47 -4 5 4 4 17 -3 75 -42 179 17 179 102 0 36 -39 94 -70 104 -41 13
-18 25 46 25 60 0 65 -1 53 -16z m-236 -39 c-33 -33 -35 -39 -31 -86 4 -41 2
-49 -10 -47 -8 2 -20 20 -26 40 -11 39 -35 62 -71 70 -22 4 93 44 167 57 3 0
-10 -15 -29 -34z m367 5 c0 -11 -4 -20 -10 -20 -5 0 -10 5 -10 10 0 6 -13 10
-30 10 -27 0 -30 -3 -30 -30 0 -25 4 -30 23 -30 13 0 28 5 35 12 9 9 12 5 12
-20 0 -18 -4 -32 -10 -32 -5 0 -10 4 -10 9 0 5 -11 11 -25 13 -23 5 -25 2 -25
-28 0 -18 6 -34 13 -37 25 -9 0 -15 -38 -8 -29 5 -35 9 -22 13 14 6 17 20 17
77 0 46 -4 71 -12 74 -7 3 17 6 55 6 61 1 67 -1 67 -19z m-231 -5 c33 -16 41
-33 41 -80 0 -61 -83 -106 -141 -75 -10 6 -26 24 -35 41 -41 81 50 158 135
114z m374 -6 c26 -6 47 -17 47 -24 0 -20 -12 -26 -24 -11 -6 8 -22 16 -35 18
-19 2 -26 -3 -32 -24 -6 -22 -3 -28 12 -33 10 -4 27 -4 38 0 15 5 18 1 13 -20
-5 -29 -8 -30 -29 -10 -22 23 -47 14 -51 -16 -3 -22 2 -28 23 -33 16 -4 33 -2
41 5 20 16 31 2 13 -16 -13 -13 -23 -14 -70 -4 -53 12 -88 29 -58 29 17 0 54
133 38 138 -17 7 -9 23 9 18 9 -3 38 -10 65 -17z m137 -23 c0 -5 -3 -7 -6 -3
-12 12 -47 -34 -53 -70 -4 -25 -12 -39 -24 -41 -16 -3 -17 1 -11 35 3 21 11
43 16 50 5 7 9 22 8 35 -1 13 -2 26 -1 30 2 11 71 -24 71 -36z m-750 -41 c7
-8 10 -25 7 -37 -7 -24 9 -40 57 -62 28 -13 28 -14 8 -21 -15 -4 -34 1 -56 14
-30 19 -66 28 -66 16 0 -18 26 -55 39 -55 14 -1 14 -2 1 -9 -32 -18 -60 -23
-55 -9 7 17 -40 133 -54 134 -6 1 -14 2 -18 3 -16 3 73 39 98 40 15 1 32 -6
39 -14z m795 3 c26 -12 29 -17 19 -42 -7 -19 -26 -22 -23 -3 4 28 -2 37 -26
37 -31 0 -31 -11 1 -65 20 -35 23 -48 15 -64 -16 -29 -45 -34 -84 -14 -29 16
-32 22 -24 41 11 25 32 31 23 6 -8 -21 11 -44 34 -44 29 0 29 21 3 68 -24 40
-24 44 -9 67 18 28 33 31 71 13z m115 -27 c0 -3 -14 -14 -30 -23 -17 -10 -38
-35 -48 -55 l-16 -38 -4 28 c-2 16 3 36 11 45 22 26 28 53 16 68 -8 10 0 9 30
-3 23 -9 41 -19 41 -22z m39 -60 c13 -11 19 -25 15 -35 -9 -23 -22 -20 -26 7
-4 28 -48 38 -48 10 1 -10 7 -29 15 -43 19 -33 19 -55 -1 -74 -21 -21 -54 -20
-82 4 -19 16 -21 23 -12 40 15 28 26 25 25 -7 0 -19 6 -29 19 -31 33 -7 41 14
21 58 -15 32 -16 45 -7 65 14 30 50 33 81 6z m-1121 -3 c19 -19 14 -55 -12
-75 -19 -15 -22 -23 -14 -37 5 -9 18 -21 29 -24 18 -7 17 -10 -12 -31 -24 -18
-31 -20 -26 -8 9 24 -62 126 -88 127 -15 0 -8 8 25 30 48 32 79 37 98 18z
m1199 -13 c10 -8 27 -22 38 -31 17 -14 16 -14 -8 1 -27 16 -30 16 -48 -1 -10
-9 -19 -21 -19 -26 0 -6 -9 -21 -20 -35 l-20 -26 0 25 c0 14 9 33 20 43 11 10
20 29 20 42 0 27 12 29 37 8z m34 -72 c17 -19 19 -24 7 -20 -12 4 -30 -10 -63
-48 -25 -30 -44 -59 -40 -65 13 -21 -12 -9 -36 17 -17 18 -19 24 -7 20 18 -6
105 88 100 110 -5 21 13 15 39 -14z m-496 -7 c249 -69 463 -260 558 -498 48
-119 59 -190 55 -338 -4 -120 -8 -146 -37 -230 -47 -139 -99 -220 -210 -330
-108 -107 -184 -154 -326 -202 -78 -27 -108 -32 -225 -36 -148 -4 -218 7 -338
55 -104 41 -179 90 -264 171 -176 169 -258 360 -258 604 0 220 73 406 218 560
125 133 265 213 442 254 76 18 306 12 385 -10z m595 -101 c85 -44 57 -175 -37
-175 -72 0 -118 89 -77 148 28 41 69 50 114 27z m-1550 -20 c58 -30 67 -94 21
-144 -48 -51 -120 -40 -147 24 -18 44 -2 90 40 116 38 23 48 23 86 4z m1665
-261 c-19 -37 -33 -69 -32 -70 9 -6 87 40 87 51 0 25 15 17 27 -15 11 -30 6
-38 -12 -21 -6 5 -37 -4 -77 -23 -37 -18 -70 -31 -72 -28 -3 2 13 40 35 83 21
44 36 79 32 78 -22 -1 -98 -47 -95 -57 4 -22 -15 -12 -27 14 -12 28 -6 48 8
25 12 -18 131 42 131 67 1 12 5 10 15 -9 13 -25 12 -32 -20 -95z m100 -2 c-2
-3 -11 0 -18 7 -8 6 -22 9 -31 5 -14 -5 -15 -3 -6 21 18 48 22 49 41 10 11
-21 17 -41 14 -43z m-1841 -47 c-15 -33 -29 -54 -32 -47 -2 7 -31 26 -64 43
-50 25 -62 28 -76 17 -14 -11 -15 -10 -8 7 5 11 11 28 13 38 6 20 23 23 23 4
0 -7 27 -24 60 -39 l60 -26 16 30 c11 22 13 33 5 41 -6 6 -11 16 -11 21 0 6 9
1 20 -10 l21 -20 -27 -59z m1892 -89 c3 -17 7 -42 10 -55 l5 -23 -23 25 c-17
19 -37 27 -73 32 -81 9 -106 16 -102 28 5 17 67 46 104 49 34 2 46 16 38 46
-3 9 4 -3 16 -27 12 -25 23 -58 25 -75z m-1968 -21 c65 -75 -24 -190 -111
-143 -34 18 -46 40 -47 81 0 30 7 45 30 69 27 26 36 30 68 25 22 -4 46 -17 60
-32z m1776 -2 c4 -5 44 -15 88 -23 45 -8 83 -19 85 -25 1 -5 -29 -27 -68 -48
-39 -22 -73 -46 -76 -54 -8 -21 -23 4 -22 37 0 14 3 20 5 13 4 -9 11 -9 30 -1
24 11 29 24 18 52 -7 18 -54 22 -54 5 0 -19 -18 1 -22 26 -5 25 2 32 16 18z
m100 -214 c49 -3 71 0 74 9 8 25 18 2 14 -33 -4 -30 -6 -33 -16 -20 -9 12 -26
15 -76 13 l-65 -3 1 -35 c1 -19 7 -36 13 -38 20 -7 12 -20 -9 -15 -18 5 -20
14 -20 77 0 39 4 66 8 60 4 -7 38 -14 76 -15z m-1964 -18 c5 -11 10 -29 10
-40 0 -17 6 -21 30 -21 17 0 30 5 30 10 0 6 5 10 10 10 6 0 10 -16 10 -35 0
-19 -4 -35 -10 -35 -5 0 -10 5 -10 10 0 6 -28 10 -65 10 -49 0 -67 -4 -71 -15
-11 -27 -24 -5 -24 38 0 24 7 53 16 65 19 27 60 29 74 3z"/>
<path d="M471 1354 c-27 -35 -26 -59 4 -89 30 -31 45 -31 79 0 32 30 33 65 3
93 -31 29 -61 28 -86 -4z m78 -22 c7 -14 6 -25 -5 -40 -19 -27 -36 -28 -58 -3
-14 15 -15 24 -6 40 14 26 56 28 69 3z"/>
<path d="M2435 1354 c-33 -35 -31 -57 5 -88 33 -27 51 -26 86 6 26 23 24 50
-4 83 -28 32 -57 32 -87 -1z m75 -19 c26 -32 -13 -81 -47 -59 -35 22 -23 74
17 74 10 0 23 -7 30 -15z"/>
<path d="M611 1204 c-12 -9 -20 -23 -19 -32 2 -9 -3 -16 -9 -14 -7 1 -13 -2
-13 -7 0 -5 -9 -11 -20 -14 -31 -8 -35 -35 -9 -63 12 -13 25 -21 28 -17 3 5
16 14 29 21 32 18 30 -10 -3 -32 -30 -20 -32 -37 -5 -61 11 -10 20 -23 20 -30
0 -11 71 -107 102 -139 15 -14 21 -12 72 30 31 26 56 49 56 52 0 9 -42 72 -53
79 -20 13 -59 74 -98 154 -21 42 -42 80 -47 83 -5 3 -19 -2 -31 -10z m44 -56
c10 -24 20 -46 22 -49 2 -4 -3 -9 -12 -13 -9 -3 -15 -1 -14 7 4 33 -1 36 -38
20 -21 -8 -41 -20 -44 -25 -4 -6 -12 -1 -19 12 -10 18 -9 21 2 18 7 -3 31 4
52 15 36 17 38 21 23 32 -20 15 -22 25 -4 25 8 0 22 -19 32 -42z m45 -92 c14
-18 13 -19 -2 -13 -28 10 -39 -15 -19 -42 l18 -24 17 24 c9 13 16 19 16 14 0
-6 18 -32 40 -59 41 -49 48 -66 29 -66 -5 0 -8 4 -5 9 3 5 -1 14 -10 21 -12
10 -17 11 -27 1 -9 -10 -8 -15 7 -26 10 -8 15 -18 11 -24 -9 -16 -25 -13 -25
3 0 21 -20 30 -33 16 -9 -9 -6 -16 12 -31 13 -11 21 -22 17 -26 -3 -4 -22 9
-41 27 l-35 34 28 12 c15 6 35 20 45 31 15 18 16 22 3 33 -13 10 -22 8 -50 -9
-19 -12 -36 -26 -38 -31 -2 -6 -9 -1 -16 10 -11 17 -10 20 7 20 28 0 33 13 15
38 -16 23 -44 20 -44 -6 0 -13 -3 -12 -15 4 -17 22 -20 38 -5 29 10 -6 72 31
79 48 1 4 4 7 5 5 1 -2 8 -12 16 -22z"/>
<path d="M2362 1185 c-11 -13 -30 -50 -43 -82 -12 -32 -31 -64 -41 -71 -10 -7
-24 -25 -32 -40 -8 -15 -35 -49 -61 -75 -39 -40 -46 -52 -41 -75 3 -15 3 -21
0 -14 -8 17 -34 15 -55 -4 -13 -12 -16 -24 -12 -48 6 -29 6 -30 -11 -13 -10 9
-22 17 -28 17 -24 0 -80 -44 -91 -73 -12 -28 -14 -29 -29 -13 -10 9 -20 17
-24 17 -15 1 -33 -39 -34 -75 0 -41 -11 -43 -16 -3 -1 12 -3 25 -3 28 -3 21
-35 15 -61 -11 -24 -25 -30 -27 -40 -15 -17 20 -26 19 -50 -5 -16 -16 -18 -25
-10 -40 6 -11 11 -36 12 -55 2 -50 15 -57 72 -40 27 8 52 13 56 10 4 -2 16 2
26 10 10 8 29 15 40 15 12 0 27 7 34 15 7 8 21 15 31 15 11 0 28 9 38 19 10
10 34 22 52 26 19 4 50 21 69 37 19 16 47 39 62 51 59 49 111 93 119 102 69
81 122 161 115 173 -3 6 6 17 19 26 14 9 24 23 23 31 -2 8 5 20 15 27 10 7 24
31 32 53 13 37 13 41 -7 58 -11 9 -28 17 -37 17 -9 0 -25 7 -35 15 -26 20 -31
19 -54 -10z m26 -27 c-19 -19 -20 -21 -3 -31 18 -10 39 8 29 25 -3 4 2 8 10 8
19 0 21 -11 5 -27 -13 -13 -4 -33 17 -33 13 0 19 18 15 49 -2 7 2 10 8 6 15
-8 14 -16 -5 -61 -9 -22 -19 -33 -21 -26 -6 15 -72 44 -84 36 -12 -7 -11 0 7
45 10 25 20 38 29 35 10 -4 8 -11 -7 -26z m-3 -116 c-2 -2 -13 1 -24 8 -12 6
-26 8 -31 5 -13 -8 -13 8 1 22 7 7 17 4 34 -11 13 -11 22 -22 20 -24z m34 -11
c18 -12 5 -17 -58 -26 l-53 -7 28 -19 c16 -10 35 -17 42 -14 14 5 15 -4 2 -25
-8 -13 -11 -13 -22 1 -32 40 -88 57 -88 27 0 -10 44 -49 66 -58 10 -4 9 -9 -2
-24 -8 -12 -14 -14 -14 -7 0 13 -42 52 -68 62 -25 9 49 79 84 79 16 0 36 5 44
10 18 12 21 12 39 1z m-180 -166 c2 -47 15 -61 34 -35 9 12 13 30 9 39 -5 14
-4 14 11 2 16 -12 14 -16 -15 -51 -18 -21 -36 -39 -40 -39 -4 -1 -10 26 -14
59 -6 58 -7 60 -25 44 -11 -9 -19 -23 -19 -31 0 -7 -4 -13 -10 -13 -17 0 -12
11 23 49 35 40 45 35 46 -24z m-43 -62 c-10 -10 -19 5 -10 18 6 11 8 11 12 0
2 -7 1 -15 -2 -18z m-35 -18 c22 -14 44 -23 49 -20 6 4 10 2 10 -2 0 -5 -9
-14 -19 -20 -15 -10 -20 -9 -25 2 -6 17 -15 18 -34 7 -16 -10 -4 -45 12 -35 6
4 5 -1 -3 -10 -14 -17 -37 -24 -27 -8 3 5 -1 28 -9 51 -25 70 -19 75 46 35z
m-101 -57 c0 -6 -6 -5 -14 1 -11 9 -20 10 -35 1 -24 -12 -28 -52 -7 -70 20
-15 61 -9 61 10 0 8 -6 14 -13 12 -18 -3 -6 15 18 28 15 8 17 6 13 -9 -3 -10
1 -22 7 -26 15 -9 -36 -45 -64 -45 -45 0 -72 57 -43 92 29 37 77 40 77 6z
m-130 -83 c19 -19 41 -35 49 -35 13 -1 12 -4 -3 -15 -21 -16 -40 -20 -32 -7 9
15 -10 33 -28 26 -12 -5 -16 -13 -12 -29 4 -14 1 -25 -7 -28 -9 -3 -13 13 -14
59 -1 35 1 64 5 64 5 0 23 -16 42 -35z m-107 -6 c-12 -12 10 -78 31 -91 8 -6
8 -8 -1 -8 -6 0 -19 -3 -29 -7 -11 -4 -15 -3 -10 5 3 6 4 23 0 37 -8 33 -24
15 -24 -27 0 -16 -4 -28 -10 -28 -5 0 -10 3 -10 8 -1 4 -11 20 -24 36 l-24 28
5 -28 c3 -16 10 -34 15 -40 5 -8 2 -13 -9 -16 -15 -4 -18 2 -19 41 -1 25 -6
47 -13 49 -17 6 -13 22 6 22 9 0 29 -14 43 -32 l27 -32 7 39 c7 38 20 55 41
55 5 0 4 -5 -2 -11z"/>
<path d="M2120 770 c0 -5 5 -10 10 -10 6 0 10 5 10 10 0 6 -4 10 -10 10 -5 0
-10 -4 -10 -10z"/>
<path d="M1896 635 c4 -8 10 -12 15 -9 11 6 2 24 -11 24 -5 0 -7 -7 -4 -15z"/>
<path d="M846 851 c-9 -10 -16 -23 -16 -29 0 -7 -4 -12 -9 -12 -5 0 -16 -11
-25 -25 -12 -19 -14 -30 -7 -44 15 -27 41 -34 60 -17 25 22 47 5 30 -22 -12
-18 -10 -24 12 -44 14 -13 52 -37 85 -53 32 -15 69 -36 82 -46 13 -10 30 -15
37 -12 8 3 22 -2 31 -12 21 -21 46 -16 60 13 21 43 35 49 24 12 -13 -46 11
-72 72 -75 23 -1 51 -6 61 -10 9 -4 27 -5 38 -2 12 3 32 1 45 -5 20 -9 28 -8
42 5 14 14 14 21 4 37 -6 11 -12 27 -12 36 0 15 2 15 24 0 15 -10 27 -12 31
-6 13 21 26 9 20 -18 -10 -46 33 -72 81 -50 27 13 40 48 29 75 -5 10 -7 28 -6
40 3 31 -39 51 -74 35 -20 -9 -30 -9 -45 0 -15 10 -23 9 -39 -6 -18 -16 -23
-17 -37 -5 -16 13 -26 16 -79 23 -51 6 -159 36 -188 52 -15 8 -32 12 -37 9 -6
-3 -22 3 -37 15 -28 22 -27 22 -81 -27 -17 -17 -27 -16 -42 1 -9 12 -7 21 12
46 l23 32 -23 17 c-13 9 -40 30 -60 47 -49 41 -67 46 -86 25z m74 -66 c0 -32
-16 -40 -44 -22 -27 18 -48 5 -39 -22 5 -13 3 -13 -15 2 l-21 19 35 30 c21 18
33 37 30 45 -4 9 5 7 24 -7 19 -13 30 -30 30 -45z m38 -57 c-36 -39 -35 -57 3
-65 25 -5 28 -8 15 -15 -10 -6 -26 -2 -51 14 -34 22 -46 40 -24 36 7 -2 21 15
33 38 16 32 24 38 36 31 14 -8 12 -14 -12 -39z m131 -80 c-2 -29 0 -59 4 -65
10 -16 2 -16 -24 -2 -13 7 -17 14 -11 22 12 17 14 69 2 62 -6 -4 -8 -11 -5
-16 4 -5 -1 -9 -9 -9 -8 0 -19 -7 -24 -16 -5 -9 -14 -14 -20 -10 -11 6 64 85
81 86 5 0 7 -24 6 -52z m84 -16 l-4 -27 18 21 c13 15 24 19 38 13 14 -5 15 -8
5 -9 -26 -1 -62 -39 -62 -64 0 -18 -5 -22 -19 -19 -25 7 -35 23 -15 23 21 0
25 64 5 85 -17 17 -9 25 14 14 18 -8 23 -17 20 -37z m160 -19 c4 -2 5 -8 2
-13 -4 -6 -14 -4 -25 2 -15 9 -22 10 -31 1 -16 -16 -1 -36 22 -30 12 3 19 0
19 -9 0 -10 -8 -12 -30 -7 -23 4 -30 2 -30 -10 0 -18 34 -32 51 -21 7 4 10 2
8 -5 -5 -15 -7 -15 -60 -6 -23 4 -37 10 -31 14 13 8 33 81 25 94 -6 9 62 1 80
-10z m81 -13 c25 -9 38 -50 16 -50 -16 0 -12 -14 10 -38 25 -26 25 -31 1 -25
-10 2 -24 16 -30 29 -14 32 -35 31 -28 -2 3 -19 1 -24 -10 -20 -8 3 -20 6 -26
6 -8 0 -7 3 2 9 9 6 12 23 10 55 -4 50 4 56 55 36z m100 1 c7 -10 -3 -41 -13
-41 -3 0 -7 11 -7 25 -2 25 10 33 20 16z m106 -17 c0 -12 -4 -12 -20 -2 -35
22 -35 -2 0 -31 30 -25 33 -31 21 -45 -17 -21 -71 -22 -71 -1 0 8 5 15 10 15
6 0 10 -4 10 -10 0 -5 9 -10 20 -10 29 0 25 15 -10 40 -33 24 -38 44 -14 58
22 12 54 4 54 -14z"/>
<path d="M872 800 c-10 -17 -10 -21 3 -27 25 -9 42 14 24 32 -13 13 -16 12
-27 -5z"/>
<path d="M1380 569 c0 -25 33 -22 38 4 2 12 -3 17 -17 17 -15 0 -21 -6 -21
-21z"/>
<path d="M1308 2586 c-41 -20 -37 -103 6 -132 20 -13 29 -13 48 -3 31 16 38
28 38 64 0 59 -45 94 -92 71z m56 -49 c10 -37 7 -55 -10 -61 -25 -9 -44 12
-44 49 0 48 42 57 54 12z"/>
<path d="M1070 2510 c0 -19 24 -60 34 -57 17 6 29 33 23 51 -7 17 -57 23 -57
6z"/>
<path d="M905 2420 c-8 -12 21 -60 35 -60 18 0 32 40 19 56 -13 16 -45 19 -54
4z"/>
<path d="M1358 2335 c-370 -70 -638 -371 -664 -745 -27 -372 215 -716 581
-826 124 -37 310 -39 430 -5 330 93 555 352 597 689 50 391 -211 773 -598 872
-105 28 -248 34 -346 15z m350 -45 c147 -41 297 -138 392 -253 60 -73 133
-215 157 -307 24 -90 24 -291 0 -380 -41 -154 -140 -311 -256 -407 -76 -63
-217 -135 -311 -160 -89 -24 -291 -24 -380 0 -94 25 -235 97 -311 160 -114 95
-215 254 -254 402 -25 93 -30 236 -12 331 12 64 58 204 72 222 4 5 230 -81
236 -90 3 -4 20 -12 37 -18 28 -7 36 -5 55 15 22 24 140 94 167 100 8 2 24 6
35 10 20 7 20 6 1 -9 -11 -9 -23 -16 -28 -16 -16 0 -7 -57 12 -78 28 -30 25
-49 -10 -55 -20 -4 -30 -13 -30 -24 0 -15 -10 -18 -68 -19 -55 -1 -78 -6 -132
-34 -46 -24 -85 -36 -133 -40 -61 -6 -71 -11 -105 -45 -20 -20 -47 -41 -59
-46 -21 -8 -24 -19 -14 -57 1 -1 11 3 24 10 12 7 26 11 30 10 5 -1 11 5 14 15
7 27 50 54 92 60 l38 5 -16 -61 c-15 -61 -15 -62 8 -107 18 -33 41 -55 84 -82
34 -20 76 -51 94 -69 29 -28 33 -37 33 -85 0 -59 12 -78 47 -78 62 0 233 -55
251 -82 15 -21 83 -58 107 -58 8 0 15 -7 15 -15 0 -16 15 -17 65 -6 l30 6 -56
32 c-31 17 -90 62 -132 99 -79 70 -106 115 -120 206 l-6 37 47 -30 c53 -33 77
-37 70 -11 -5 16 1 17 61 11 36 -3 80 -13 96 -21 25 -13 136 -98 168 -128 5
-4 -19 -17 -52 -30 -50 -18 -66 -20 -92 -11 -38 13 -64 1 -73 -34 -4 -14 -7
-28 -9 -32 -4 -11 46 -12 88 -1 137 34 193 60 201 95 7 25 4 29 -68 118 l-47
58 24 19 c26 20 44 22 77 9 13 -6 44 -13 70 -16 48 -6 83 -29 72 -46 -3 -5 -8
-21 -10 -36 -7 -39 -20 -58 -41 -58 -20 0 -49 -74 -39 -101 8 -20 45 -10 68
19 9 12 23 29 31 38 22 25 49 137 42 171 -6 24 -17 35 -59 54 -28 13 -64 34
-79 46 -27 22 -28 26 -21 75 3 29 10 50 15 47 20 -12 30 8 13 27 -21 24 -21
97 1 139 13 25 19 28 39 20 13 -5 27 -6 30 -3 12 12 6 42 -11 52 -17 10 -17
10 0 11 9 0 17 -4 17 -10 0 -5 7 -10 15 -10 9 0 18 -7 21 -15 4 -9 16 -13 33
-12 37 4 48 13 55 42 6 22 -3 37 -54 94 -33 37 -60 75 -60 84 0 8 -8 18 -19
22 -10 3 -26 14 -35 24 -15 16 -16 26 -7 57 6 21 9 39 7 41 -2 2 -15 -15 -30
-37 -31 -47 -55 -51 -103 -14 -37 28 -43 20 -13 -19 25 -32 25 -39 -1 -63 -28
-25 -57 -19 -98 22 -19 19 -38 34 -42 34 -5 0 -19 11 -33 25 -14 14 -34 25
-44 25 -12 0 -22 9 -26 23 -16 65 -126 49 -126 -19 0 -15 -8 -23 -27 -27 -16
-3 -50 -24 -77 -47 -28 -23 -65 -48 -85 -56 -19 -8 -54 -30 -77 -50 -24 -19
-63 -41 -87 -48 -42 -13 -48 -11 -153 27 -60 22 -111 42 -113 43 -2 2 9 23 24
46 122 185 310 307 533 348 75 14 248 3 330 -20z m-167 -211 c5 -11 26 -27 47
-37 46 -21 51 -43 14 -59 -15 -7 -33 -25 -40 -40 -6 -16 -21 -42 -32 -59 l-20
-30 75 -63 74 -62 30 22 c16 12 37 38 48 58 10 20 21 37 24 39 3 1 4 18 3 37
-3 31 0 35 20 35 14 0 34 14 55 40 50 63 93 50 161 -50 14 -19 39 -50 57 -69
34 -35 44 -71 19 -71 -7 0 -31 7 -51 16 -21 8 -46 13 -57 11 -10 -3 -25 2 -34
10 -23 23 -64 -1 -63 -36 0 -14 -3 -50 -6 -79 -4 -30 -3 -57 3 -65 17 -22 20
-68 7 -125 -15 -64 -12 -76 29 -113 29 -27 30 -28 9 -29 -12 0 -34 5 -49 11
-36 13 -66 5 -99 -25 -28 -26 -32 -48 -10 -66 8 -7 15 -18 15 -26 0 -7 6 -17
13 -21 20 -13 67 -73 67 -86 -1 -7 -8 0 -16 16 -8 15 -18 27 -22 27 -4 0 -34
22 -67 50 -79 67 -131 90 -203 90 -32 0 -63 -5 -68 -10 -7 -7 -24 -4 -54 9
-59 26 -75 15 -66 -49 9 -69 36 -132 67 -162 35 -34 28 -40 -22 -19 -25 10
-37 21 -34 30 3 8 -1 24 -10 37 -8 13 -16 31 -18 41 -6 34 -34 88 -61 121
l-28 32 -17 -22 c-23 -27 -18 -137 6 -175 16 -24 16 -25 -7 -21 -16 2 -24 11
-26 28 -14 102 -28 124 -112 171 -94 53 -127 100 -115 167 3 20 6 52 6 70 0
17 5 32 11 32 6 1 46 18 90 40 68 33 86 38 138 36 52 -2 62 1 78 21 10 13 22
23 28 23 17 0 37 32 33 54 -1 11 -9 29 -17 40 -18 27 -18 52 1 60 8 3 15 14
15 25 0 19 -25 35 -41 26 -5 -4 -6 0 -4 7 6 13 38 38 105 81 19 12 39 31 45
42 19 38 25 43 45 38 11 -3 25 -14 31 -24z m141 -138 c49 -28 53 -32 50 -63
-5 -39 -23 -77 -50 -101 -19 -17 -21 -17 -58 17 -22 19 -49 43 -62 53 -23 18
-23 18 -4 39 11 11 27 35 36 52 9 18 21 32 26 32 5 0 33 -13 62 -29z m227
-158 c-9 -11 -10 -14 -2 -9 7 4 21 2 30 -3 20 -12 19 -13 -18 -15 -21 -2 -26
2 -24 19 3 25 3 25 16 25 8 0 7 -6 -2 -17z m75 -38 c-7 -17 -20 -20 -28 -6 -7
10 3 21 20 21 8 0 11 -6 8 -15z m-73 -47 c-10 -24 -21 -50 -25 -58 -3 -8 -3 8
1 35 7 58 9 65 28 65 11 0 10 -8 -4 -42z m-637 -410 c13 -24 29 -62 36 -85 6
-25 19 -47 31 -54 38 -20 12 -20 -35 0 -30 14 -50 29 -56 46 -10 26 -14 135
-5 135 2 0 15 -19 29 -42z m698 -156 c-9 -14 -18 -20 -20 -13 -6 18 5 38 21
38 13 0 13 -3 -1 -25z m-312 -56 c0 -2 -7 -6 -15 -10 -8 -3 -15 -1 -15 4 0 6
7 10 15 10 8 0 15 -2 15 -4z"/>
<path d="M2231 2204 c-74 -62 0 -144 77 -87 50 37 35 113 -23 113 -13 0 -37
-12 -54 -26z m79 -27 c0 -31 -18 -47 -52 -47 -33 0 -38 23 -11 52 24 27 63 24
63 -5z"/>
<path d="M666 2197 c-30 -22 -18 -77 23 -104 37 -25 66 -23 89 5 19 25 14 51
-17 83 -31 31 -66 37 -95 16z m80 -38 c19 -21 12 -48 -14 -57 -18 -6 -63 44
-56 62 9 23 48 20 70 -5z"/>
<path d="M486 1787 c-31 -31 -33 -50 -6 -77 47 -47 122 -32 128 26 4 36 -20
61 -65 70 -26 5 -37 1 -57 -19z m92 -44 c5 -37 -68 -44 -82 -7 -10 25 3 35 42
32 29 -2 38 -8 40 -25z"/>
<path d="M2460 1751 c0 -18 15 -19 40 -5 l25 13 -32 1 c-18 0 -33 -4 -33 -9z"/>
<path d="M457 1553 c-4 -3 -7 -16 -7 -28 0 -18 5 -20 35 -17 39 5 39 5 25 33
-10 19 -40 26 -53 12z"/>
</g>
</svg>
